<?xml version="1.0" encoding="UTF-8" standalone="no"?>
<svg
   width="194"
   height="125"
   viewBox="70 63 194 125"
   preserveAspectRatio="xMidYMid"
   color-interpolation-filters="sRGB"
   class="block h-9 w-auto"
   version="1.1"
   id="svg7"
   sodipodi:docname="logo.svg"
   inkscape:version="1.4.1-rc (06eac75fbf, 2025-03-29)"
   inkscape:export-filename="../3767e219/logo-512x512.png"
   inkscape:export-xdpi="33.75"
   inkscape:export-ydpi="33.75"
   xmlns:inkscape="http://www.inkscape.org/namespaces/inkscape"
   xmlns:sodipodi="http://sodipodi.sourceforge.net/DTD/sodipodi-0.dtd"
   xmlns="http://www.w3.org/2000/svg"
   xmlns:svg="http://www.w3.org/2000/svg">
  <defs
     id="defs7">
    <clipPath
       clipPathUnits="userSpaceOnUse"
       id="clipPath11">
      <rect
         style="fill:#000000"
         id="rect11"
         width="122.98905"
         height="22.157297"
         x="-1.0749071"
         y="-20.95188" />
    </clipPath>
    <clipPath
       clipPathUnits="userSpaceOnUse"
       id="clipPath12">
      <rect
         style="fill:#000000"
         id="rect13"
         width="49.613079"
         height="24.726259"
         x="121.59303"
         y="-21.754683" />
    </clipPath>
  </defs>
  <sodipodi:namedview
     id="namedview7"
     pagecolor="#ffffff"
     bordercolor="#000000"
     borderopacity="0.25"
     inkscape:showpageshadow="2"
     inkscape:pageopacity="0.0"
     inkscape:pagecheckerboard="0"
     inkscape:deskcolor="#d1d1d1"
     inkscape:zoom="1.5570491"
     inkscape:cx="142.57739"
     inkscape:cy="284.83366"
     inkscape:window-width="1720"
     inkscape:window-height="1306"
     inkscape:window-x="0"
     inkscape:window-y="27"
     inkscape:window-maximized="0"
     inkscape:current-layer="svg7" />
  <g
     id="g14"
     transform="matrix(0.36203763,0,0,0.36203763,48.830383,19.234881)">
    <path
       fill-opacity="0"
       stroke="#4dbbff"
       stroke-width="8.23852"
       d="m 266.73568,257.79182 a 155.64627,155.64627 0 1 1 0,71.45544"
       id="path1"
       style="opacity:1"
       inkscape:label="ring" />
    <path
       fill="#f3f4f6"
       stroke="#1f2937"
       d="m 1.51,0 v -18.72 h 17.08 v 2.11 H 3.61 v 6.18 h 12.04 v 2.14 H 3.61 V 0 Z M 23.3,-15.08 v 0 h 8.47 v 2.13 H 23.3 c -0.28,0 -0.52,0.1 -0.72,0.3 -0.2,0.2 -0.3,0.44 -0.3,0.72 v 0 V 0 h -2.13 v -11.93 c 0,-0.866667 0.306667,-1.61 0.92,-2.23 0.62,-0.613333 1.363333,-0.92 2.23,-0.92 z m 13.28,0 h 9.05 c 0.886667,0 1.636667,0.306667 2.25,0.92 0.613333,0.62 0.92,1.363333 0.92,2.23 v 0 5.46 H 35.57 v 3.32 c 0,0.28 0.1,0.52 0.3,0.72 0.2,0.2 0.436667,0.3 0.71,0.3 v 0 H 48.8 V 0 H 36.58 c -0.866667,0 -1.606667,-0.30666667 -2.22,-0.92 -0.613333,-0.62 -0.92,-1.3633333 -0.92,-2.23 v 0 -8.78 c 0,-0.866667 0.306667,-1.61 0.92,-2.23 0.613333,-0.613333 1.353333,-0.92 2.22,-0.92 z m -1.01,3.15 v 3.32 h 11.07 v -3.32 c 0,-0.28 -0.1,-0.52 -0.3,-0.72 -0.193333,-0.2 -0.43,-0.3 -0.71,-0.3 v 0 h -9.05 c -0.273333,0 -0.51,0.1 -0.71,0.3 -0.2,0.2 -0.3,0.44 -0.3,0.72 z m 18.61,-3.15 h 9.05 c 0.886667,0 1.636667,0.306667 2.25,0.92 0.613333,0.62 0.92,1.363333 0.92,2.23 v 0 5.46 H 53.17 v 3.32 c 0,0.28 0.1,0.52 0.3,0.72 0.2,0.2 0.436667,0.3 0.71,0.3 v 0 H 66.4 V 0 H 54.18 c -0.866667,0 -1.606667,-0.30666667 -2.22,-0.92 -0.613333,-0.62 -0.92,-1.3633333 -0.92,-2.23 v 0 -8.78 c 0,-0.866667 0.306667,-1.61 0.92,-2.23 0.613333,-0.613333 1.353333,-0.92 2.22,-0.92 z m -1.01,3.15 v 3.32 h 11.08 v -3.32 c 0,-0.28 -0.1,-0.52 -0.3,-0.72 -0.2,-0.2 -0.44,-0.3 -0.72,-0.3 v 0 h -9.05 c -0.273333,0 -0.51,0.1 -0.71,0.3 -0.2,0.2 -0.3,0.44 -0.3,0.72 z m 28.96,-1.02 H 69.11 v -2.13 h 15.36 v 2.91 L 71.45,-2.13 H 84.47 V 0 H 69.11 v -2.91 z m 7.54,-2.13 h 9.05 c 0.886667,0 1.63667,0.306667 2.25,0.92 0.61333,0.62 0.92,1.363333 0.92,2.23 v 0 5.46 H 88.66 v 3.32 c 0,0.28 0.1,0.52 0.3,0.72 0.2,0.2 0.436667,0.3 0.71,0.3 v 0 h 12.22 V 0 H 89.67 c -0.866667,0 -1.606667,-0.30666667 -2.22,-0.92 -0.613333,-0.62 -0.92,-1.3633333 -0.92,-2.23 v 0 -8.78 c 0,-0.866667 0.306667,-1.61 0.92,-2.23 0.613333,-0.613333 1.353333,-0.92 2.22,-0.92 z m -1.01,3.15 v 3.32 h 11.08 v -3.32 c 0,-0.28 -0.1,-0.52 -0.3,-0.72 -0.2,-0.2 -0.44,-0.3 -0.72,-0.3 v 0 h -9.05 c -0.273333,0 -0.51,0.1 -0.71,0.3 -0.2,0.2 -0.3,0.44 -0.3,0.72 z m 18.9,-3.15 v 0 h 8.48 v 2.13 h -8.48 c -0.27333,0 -0.51,0.1 -0.71,0.3 -0.2,0.2 -0.3,0.44 -0.3,0.72 v 0 V 0 h -2.13 v -11.93 c 0,-0.866667 0.30667,-1.61 0.92,-2.23 0.61333,-0.613333 1.35333,-0.92 2.22,-0.92 z m 19.42,0 h 10.09 c 0.86667,0 1.61,0.306667 2.23,0.92 0.61333,0.62 0.92,1.363333 0.92,2.23 v 0 8.78 c 0,0.8666667 -0.30667,1.61 -0.92,2.23 -0.62,0.61333333 -1.36333,0.92 -2.23,0.92 v 0 h -12.22 v -20.02 h 2.13 z m 11.11,11.93 v 0 -8.78 c 0,-0.28 -0.1,-0.52 -0.3,-0.72 -0.2,-0.2 -0.44,-0.3 -0.72,-0.3 v 0 h -9.05 c -0.27333,0 -0.51333,0.1 -0.72,0.3 -0.21333,0.2 -0.32,0.44 -0.32,0.72 v 0 8.78 c 0,0.28 0.10667,0.52 0.32,0.72 0.20667,0.2 0.44667,0.3 0.72,0.3 v 0 h 9.05 c 0.28,0 0.52,-0.1 0.72,-0.3 0.2,-0.2 0.3,-0.44 0.3,-0.72 z m 7.17,-11.93 v 0 h 9.05 c 0.88667,0 1.63667,0.306667 2.25,0.92 0.61333,0.62 0.92,1.363333 0.92,2.23 v 0 8.78 c 0,0.8666667 -0.30667,1.61 -0.92,2.23 -0.61333,0.61333333 -1.36333,0.92 -2.25,0.92 v 0 h -9.05 c -0.86667,0 -1.60667,-0.30666667 -2.22,-0.92 -0.61333,-0.62 -0.92,-1.3633333 -0.92,-2.23 v 0 -8.78 c 0,-0.866667 0.30667,-1.61 0.92,-2.23 0.61333,-0.613333 1.35333,-0.92 2.22,-0.92 z m 9.05,2.13 v 0 h -9.05 c -0.27333,0 -0.51,0.1 -0.71,0.3 -0.2,0.2 -0.3,0.44 -0.3,0.72 v 0 8.78 c 0,0.28 0.1,0.52 0.3,0.72 0.2,0.2 0.43667,0.3 0.71,0.3 v 0 h 9.05 c 0.28,0 0.52,-0.1 0.72,-0.3 0.19333,-0.2 0.29,-0.44 0.29,-0.72 v 0 -8.78 c 0,-0.28 -0.0967,-0.52 -0.29,-0.72 -0.2,-0.2 -0.44,-0.3 -0.72,-0.3 z m 13.91,-2.13 v 2.13 h -6.53 v 9.8 c 0,0.28 0.1,0.52 0.3,0.72 0.2,0.2 0.44,0.3 0.72,0.3 v 0 h 5.51 V 0 h -5.51 c -0.88667,0 -1.63333,-0.30666667 -2.24,-0.92 -0.60667,-0.62 -0.91,-1.3633333 -0.91,-2.23 v 0 -16.87 h 2.13 v 4.94 z"
       transform="matrix(2.7461738,0,0,2.7461738,72.128074,315.51639)"
       id="path2"
       style="display:inline;opacity:1;fill:#1f2937;fill-opacity:1;stroke:#1f2937;stroke-width:1;stroke-linecap:butt;stroke-linejoin:round;stroke-dasharray:none;stroke-dashoffset:0;stroke-opacity:1"
       inkscape:label="freezer"
       clip-path="url(#clipPath11)"
       sodipodi:nodetypes="cccccccccccscccssscccscssscscccssscccscscscssccscscssssscscccssscccscscscssccssscssscccccccccccsscscccssscccscscscssccssscsssscccssscccscscscscscscccccscssscscscscscsssscscscscscscscscsscssscssscscscscscccssscccscsccccc" />
    <path
       fill="#f3f4f6"
       stroke="#1f2937"
       d="m 1.51,0 v -18.72 h 17.08 v 2.11 H 3.61 v 6.18 h 12.04 v 2.14 H 3.61 V 0 Z M 23.3,-15.08 v 0 h 8.47 v 2.13 H 23.3 q -0.42,0 -0.72,0.3 -0.3,0.3 -0.3,0.72 v 0 V 0 h -2.13 v -11.93 q 0,-1.3 0.92,-2.23 0.93,-0.92 2.23,-0.92 z m 13.28,0 h 9.05 q 1.33,0 2.25,0.92 0.92,0.93 0.92,2.23 v 0 5.46 H 35.57 v 3.32 q 0,0.42 0.3,0.72 0.3,0.3 0.71,0.3 v 0 H 48.8 V 0 H 36.58 q -1.3,0 -2.22,-0.92 -0.92,-0.93 -0.92,-2.23 v 0 -8.78 q 0,-1.3 0.92,-2.23 0.92,-0.92 2.22,-0.92 z m -1.01,3.15 v 3.32 h 11.07 v -3.32 q 0,-0.42 -0.3,-0.72 -0.29,-0.3 -0.71,-0.3 v 0 h -9.05 q -0.41,0 -0.71,0.3 -0.3,0.3 -0.3,0.72 z m 18.61,-3.15 h 9.05 q 1.33,0 2.25,0.92 0.92,0.93 0.92,2.23 v 0 5.46 H 53.17 v 3.32 q 0,0.42 0.3,0.72 0.3,0.3 0.71,0.3 v 0 H 66.4 V 0 H 54.18 q -1.3,0 -2.22,-0.92 -0.92,-0.93 -0.92,-2.23 v 0 -8.78 q 0,-1.3 0.92,-2.23 0.92,-0.92 2.22,-0.92 z m -1.01,3.15 v 3.32 h 11.08 v -3.32 q 0,-0.42 -0.3,-0.72 -0.3,-0.3 -0.72,-0.3 v 0 h -9.05 q -0.41,0 -0.71,0.3 -0.3,0.3 -0.3,0.72 z m 28.96,-1.02 H 69.11 v -2.13 h 15.36 v 2.91 L 71.45,-2.13 H 84.47 V 0 H 69.11 v -2.91 z m 7.54,-2.13 h 9.05 q 1.33,0 2.25,0.92 0.92,0.93 0.92,2.23 v 0 5.46 H 88.66 v 3.32 q 0,0.42 0.3,0.72 0.3,0.3 0.71,0.3 v 0 h 12.22 V 0 H 89.67 q -1.3,0 -2.22,-0.92 -0.92,-0.93 -0.92,-2.23 v 0 -8.78 q 0,-1.3 0.92,-2.23 0.92,-0.92 2.22,-0.92 z m -1.01,3.15 v 3.32 h 11.08 v -3.32 q 0,-0.42 -0.3,-0.72 -0.3,-0.3 -0.72,-0.3 v 0 h -9.05 q -0.41,0 -0.71,0.3 -0.3,0.3 -0.3,0.72 z m 18.9,-3.15 v 0 h 8.48 v 2.13 h -8.48 q -0.41,0 -0.71,0.3 -0.3,0.3 -0.3,0.72 v 0 V 0 h -2.13 v -11.93 q 0,-1.3 0.92,-2.23 0.92,-0.92 2.22,-0.92 z m 19.42,0 h 10.09 q 1.3,0 2.23,0.92 0.92,0.93 0.92,2.23 v 0 8.78 q 0,1.3 -0.92,2.23 Q 138.37,0 137.07,0 v 0 h -12.22 v -20.02 h 2.13 z m 11.11,11.93 v 0 -8.78 q 0,-0.42 -0.3,-0.72 -0.3,-0.3 -0.72,-0.3 v 0 h -9.05 q -0.41,0 -0.72,0.3 -0.32,0.3 -0.32,0.72 v 0 8.78 q 0,0.42 0.32,0.72 0.31,0.3 0.72,0.3 v 0 h 9.05 q 0.42,0 0.72,-0.3 0.3,-0.3 0.3,-0.72 z m 7.17,-11.93 v 0 h 9.05 q 1.33,0 2.25,0.92 0.92,0.93 0.92,2.23 v 0 8.78 q 0,1.3 -0.92,2.23 Q 155.64,0 154.31,0 v 0 h -9.05 q -1.3,0 -2.22,-0.92 -0.92,-0.93 -0.92,-2.23 v 0 -8.78 q 0,-1.3 0.92,-2.23 0.92,-0.92 2.22,-0.92 z m 9.05,2.13 v 0 h -9.05 q -0.41,0 -0.71,0.3 -0.3,0.3 -0.3,0.72 v 0 8.78 q 0,0.42 0.3,0.72 0.3,0.3 0.71,0.3 v 0 h 9.05 q 0.42,0 0.72,-0.3 0.29,-0.3 0.29,-0.72 v 0 -8.78 q 0,-0.42 -0.29,-0.72 -0.3,-0.3 -0.72,-0.3 z m 13.91,-2.13 v 2.13 h -6.53 v 9.8 q 0,0.42 0.3,0.72 0.3,0.3 0.72,0.3 v 0 h 5.51 V 0 h -5.51 q -1.33,0 -2.24,-0.92 -0.91,-0.93 -0.91,-2.23 v 0 -16.87 h 2.13 v 4.94 z"
       transform="matrix(2.7461738,0,0,2.7461738,55.651032,315.51639)"
       id="path8"
       style="display:inline;opacity:1;fill:#1f2937;fill-opacity:1;stroke:#1f2937;stroke-linecap:butt;stroke-linejoin:miter;stroke-miterlimit:4.1;stroke-opacity:1"
       inkscape:label="bot"
       clip-path="url(#clipPath12)" />
  </g>
</svg>
