<svg xmlns="http://www.w3.org/2000/svg" xmlns:xlink="http://www.w3.org/1999/xlink" width="100%" height="100%" viewBox="70 63 210 125" preserveAspectRatio="xMidYMid meet" color-interpolation-filters="sRGB">
    <g fill="#020202" class="bordersvg b-d1" transform="translate(67.4017105102539,68.3225030313888)">
        <path fill-opacity="0" class="stroke-primary-500" stroke="#4dbbff" stroke-width="3" d="M 93.3550033569336 43.66750144958496 A 56.6775016784668 56.6775016784668 0 1 1 93.3550033569336 69.68750190734863"/>
        <g transform="translate(0,43.66750144958496)">
            <g>
                <rect stroke-width="2" class="i-icon-bg" x="0" y="0" width="186.7100067138672" height="26.020000457763672" fill-opacity="0"/>
            </g>
            <g transform="translate(10,3)">
                <g opacity="1" transform="matrix(1,0,0,1,0,0)">
                    <g transform="scale(1)">
                        <g>
                            <path stroke="#000000" fill="#f3f4f6" class="stroke-gray-800 dark:stroke-gray-100 fill-gray-800 dark:fill-gray-100" d="M1.51 0L1.51-18.72 18.59-18.72 18.59-16.61 3.61-16.61 3.61-10.43 15.65-10.43 15.65-8.29 3.61-8.29 3.61 0 1.51 0ZM23.3-15.08L23.3-15.08 31.77-15.08 31.77-12.95 23.3-12.95Q22.88-12.95 22.58-12.65 22.28-12.35 22.28-11.93L22.28-11.93 22.28 0 20.15 0 20.15-11.93Q20.15-13.23 21.07-14.16 22-15.08 23.3-15.08ZM36.58-15.08L45.63-15.08Q46.96-15.08 47.88-14.16 48.8-13.23 48.8-11.93L48.8-11.93 48.8-6.47 35.57-6.47 35.57-3.15Q35.57-2.73 35.87-2.43 36.17-2.13 36.58-2.13L36.58-2.13 48.8-2.13 48.8 0 36.58 0Q35.28 0 34.36-0.92 33.44-1.85 33.44-3.15L33.44-3.15 33.44-11.93Q33.44-13.23 34.36-14.16 35.28-15.08 36.58-15.08L36.58-15.08ZM35.57-11.93L35.57-8.61 46.64-8.61 46.64-11.93Q46.64-12.35 46.34-12.65 46.05-12.95 45.63-12.95L45.63-12.95 36.58-12.95Q36.17-12.95 35.87-12.65 35.57-12.35 35.57-11.93L35.57-11.93ZM54.18-15.08L63.23-15.08Q64.56-15.08 65.48-14.16 66.4-13.23 66.4-11.93L66.4-11.93 66.4-6.47 53.17-6.47 53.17-3.15Q53.17-2.73 53.47-2.43 53.77-2.13 54.18-2.13L54.18-2.13 66.4-2.13 66.4 0 54.18 0Q52.88 0 51.96-0.92 51.04-1.85 51.04-3.15L51.04-3.15 51.04-11.93Q51.04-13.23 51.96-14.16 52.88-15.08 54.18-15.08L54.18-15.08ZM53.17-11.93L53.17-8.61 64.25-8.61 64.25-11.93Q64.25-12.35 63.95-12.65 63.65-12.95 63.23-12.95L63.23-12.95 54.18-12.95Q53.77-12.95 53.47-12.65 53.17-12.35 53.17-11.93L53.17-11.93ZM82.13-12.95L69.11-12.95 69.11-15.08 84.47-15.08 84.47-12.17 71.45-2.13 84.47-2.13 84.47 0 69.11 0 69.11-2.91 82.13-12.95ZM89.67-15.08L98.72-15.08Q100.05-15.08 100.97-14.16 101.89-13.23 101.89-11.93L101.89-11.93 101.89-6.47 88.66-6.47 88.66-3.15Q88.66-2.73 88.96-2.43 89.26-2.13 89.67-2.13L89.67-2.13 101.89-2.13 101.89 0 89.67 0Q88.37 0 87.45-0.92 86.53-1.85 86.53-3.15L86.53-3.15 86.53-11.93Q86.53-13.23 87.45-14.16 88.37-15.08 89.67-15.08L89.67-15.08ZM88.66-11.93L88.66-8.61 99.74-8.61 99.74-11.93Q99.74-12.35 99.44-12.65 99.14-12.95 98.72-12.95L98.72-12.95 89.67-12.95Q89.26-12.95 88.96-12.65 88.66-12.35 88.66-11.93L88.66-11.93ZM107.56-15.08L107.56-15.08 116.04-15.08 116.04-12.95 107.56-12.95Q107.15-12.95 106.85-12.65 106.55-12.35 106.55-11.93L106.55-11.93 106.55 0 104.42 0 104.42-11.93Q104.42-13.23 105.34-14.16 106.26-15.08 107.56-15.08ZM126.98-15.08L137.07-15.08Q138.37-15.08 139.3-14.16 140.22-13.23 140.22-11.93L140.22-11.93 140.22-3.15Q140.22-1.85 139.3-0.92 138.37 0 137.07 0L137.07 0 124.85 0 124.85-20.02 126.98-20.02 126.98-15.08ZM138.09-3.15L138.09-3.15 138.09-11.93Q138.09-12.35 137.79-12.65 137.49-12.95 137.07-12.95L137.07-12.95 128.02-12.95Q127.61-12.95 127.3-12.65 126.98-12.35 126.98-11.93L126.98-11.93 126.98-3.15Q126.98-2.73 127.3-2.43 127.61-2.13 128.02-2.13L128.02-2.13 137.07-2.13Q137.49-2.13 137.79-2.43 138.09-2.73 138.09-3.15ZM145.26-15.08L145.26-15.08 154.31-15.08Q155.64-15.08 156.56-14.16 157.48-13.23 157.48-11.93L157.48-11.93 157.48-3.15Q157.48-1.85 156.56-0.92 155.64 0 154.31 0L154.31 0 145.26 0Q143.96 0 143.04-0.92 142.12-1.85 142.12-3.15L142.12-3.15 142.12-11.93Q142.12-13.23 143.04-14.16 143.96-15.08 145.26-15.08ZM154.31-12.95L154.31-12.95 145.26-12.95Q144.85-12.95 144.55-12.65 144.25-12.35 144.25-11.93L144.25-11.93 144.25-3.15Q144.25-2.73 144.55-2.43 144.85-2.13 145.26-2.13L145.26-2.13 154.31-2.13Q154.73-2.13 155.03-2.43 155.32-2.73 155.32-3.15L155.32-3.15 155.32-11.93Q155.32-12.35 155.03-12.65 154.73-12.95 154.31-12.95ZM168.22-15.08L168.22-12.95 161.69-12.95 161.69-3.15Q161.69-2.73 161.99-2.43 162.29-2.13 162.71-2.13L162.71-2.13 168.22-2.13 168.22 0 162.71 0Q161.38 0 160.47-0.92 159.56-1.85 159.56-3.15L159.56-3.15 159.56-20.02 161.69-20.02 161.69-15.08 168.22-15.08Z" transform="translate(-1.5099999904632568, 20.020000457763672)"/>
                        </g>
                    </g>
                </g>
            </g>
        </g>
    </g>
</svg>